<svg xmlns="http://www.w3.org/2000/svg" width="1400" height="420" viewBox="0 0 1400 420">

<rect width="1400" height="420" fill="#050816"/>

<line x1="100" y1="210" x2="1300" y2="210"
stroke="#00CFFF"
stroke-width="4"
stroke-dasharray="12"
stroke-linecap="round"/>

<!-- NODE 1 -->
<circle cx="140" cy="210" r="34" fill="#0B1220" stroke="#00CFFF" stroke-width="5"/>
<circle cx="140" cy="210" r="7" fill="#00CFFF"/>

<text x="70" y="90"
fill="white"
font-size="18"
font-family="Arial"
font-weight="bold">
Simulation Preset
</text>

<text x="70" y="115"
fill="#94A3B8"
font-size="13"
font-family="Arial">
Controls operational scenarios
</text>

<!-- NODE 2 -->
<circle cx="320" cy="210" r="34" fill="#0B1220" stroke="#7B61FF" stroke-width="5"/>
<circle cx="320" cy="210" r="7" fill="#7B61FF"/>

<text x="240" y="320"
fill="white"
font-size="18"
font-family="Arial"
font-weight="bold">
Telemetry Engine
</text>

<text x="240" y="345"
fill="#94A3B8"
font-size="13"
font-family="Arial">
Realtime synchronized telemetry
</text>

<!-- NODE 3 -->
<circle cx="500" cy="210" r="34" fill="#0B1220" stroke="#00E6C3" stroke-width="5"/>
<circle cx="500" cy="210" r="7" fill="#00E6C3"/>

<text x="420" y="90"
fill="white"
font-size="18"
font-family="Arial"
font-weight="bold">
System Update
</text>

<text x="420" y="115"
fill="#94A3B8"
font-size="13"
font-family="Arial">
Contextual behavioral changes
</text>

<!-- NODE 4 -->
<circle cx="680" cy="210" r="34" fill="#0B1220" stroke="#00CFFF" stroke-width="5"/>
<circle cx="680" cy="210" r="7" fill="#00CFFF"/>

<text x="600" y="320"
fill="white"
font-size="18"
font-family="Arial"
font-weight="bold">
Activity & Logs
</text>

<text x="600" y="345"
fill="#94A3B8"
font-size="13"
font-family="Arial">
Persistent operational feedback
</text>

<!-- NODE 5 -->
<circle cx="860" cy="210" r="34" fill="#0B1220" stroke="#7B61FF" stroke-width="5"/>
<circle cx="860" cy="210" r="7" fill="#7B61FF"/>

<text x="770" y="90"
fill="white"
font-size="18"
font-family="Arial"
font-weight="bold">
Anomaly Detection
</text>

<text x="770" y="115"
fill="#94A3B8"
font-size="13"
font-family="Arial">
Operational inconsistency analysis
</text>

<!-- NODE 6 -->
<circle cx="1040" cy="210" r="34" fill="#0B1220" stroke="#00E6C3" stroke-width="5"/>
<circle cx="1040" cy="210" r="7" fill="#00E6C3"/>

<text x="950" y="320"
fill="white"
font-size="18"
font-family="Arial"
font-weight="bold">
Dataset Engine
</text>

<text x="950" y="345"
fill="#94A3B8"
font-size="13"
font-family="Arial">
Telemetry memory system
</text>

<!-- NODE 7 -->
<circle cx="1220" cy="210" r="34" fill="#0B1220" stroke="#00CFFF" stroke-width="5"/>
<circle cx="1220" cy="210" r="7" fill="#00CFFF"/>

<text x="1130" y="90"
fill="white"
font-size="18"
font-family="Arial"
font-weight="bold">
Export Pipeline
</text>

<text x="1130" y="115"
fill="#94A3B8"
font-size="13"
font-family="Arial">
JSON and CSV generation
</text>

</svg>